<svg width="142" height="142" viewBox="0 0 142 142" fill="none" xmlns="http://www.w3.org/2000/svg">
<path fill-rule="evenodd" clip-rule="evenodd" d="M71 142C110.212 142 142 110.212 142 71C142 31.7878 110.212 0 71 0C31.7878 0 0 31.7878 0 71C0 110.212 31.7878 142 71 142Z" fill="#EEEEEE"/>
<mask id="mask0" mask-type="alpha" maskUnits="userSpaceOnUse" x="0" y="0" width="142" height="142">
<path fill-rule="evenodd" clip-rule="evenodd" d="M71 142C110.212 142 142 110.212 142 71C142 31.7878 110.212 0 71 0C31.7878 0 0 31.7878 0 71C0 110.212 31.7878 142 71 142Z" fill="white"/>
</mask>
<g mask="url(#mask0)">
<rect x="-17" y="-7" width="176" height="168" fill="#EEEEEE"/>
</g>
<path fill-rule="evenodd" clip-rule="evenodd" d="M108 60.5C108 78.4493 93.0015 93 74.5 93C69.3981 93 64.5625 91.8935 60.2344 89.9145C58.3378 95.2025 53.1288 99 47 99C39.268 99 33 92.9558 33 85.5C33 79.2641 37.3847 74.0157 43.3433 72.4651C41.8311 68.7621 41 64.7252 41 60.5C41 42.5507 55.9984 28 74.5 28C93.0015 28 108 42.5507 108 60.5Z" fill="#F037A5"/>
<path fill-rule="evenodd" clip-rule="evenodd" d="M71.5 122C83.9264 122 94 112.374 94 100.5C94 88.6259 83.9264 79 71.5 79C59.0736 79 49 88.6259 49 100.5C49 112.374 59.0736 122 71.5 122Z" fill="#121212"/>
<path fill-rule="evenodd" clip-rule="evenodd" d="M58.519 73.9974C55.4814 74.0853 53.0105 71.9191 53 69.1591C52.9896 66.3991 55.4435 64.0904 58.481 64.0026C61.5186 63.9147 63.9895 66.0809 64 68.8409C64.0104 71.6009 61.5565 73.9096 58.519 73.9974Z" fill="white"/>
<path fill-rule="evenodd" clip-rule="evenodd" d="M67.026 89L66 89.5412L73.3325 102.246C72.9565 102.148 72.5577 102.101 72.1446 102.113C69.9015 102.182 68.0894 103.981 68.0971 106.132C68.1049 108.283 69.9295 109.971 72.1727 109.903C74.4158 109.834 76.2279 108.035 76.2202 105.884C76.2192 105.613 76.1893 105.349 76.1334 105.095L76.2726 105.022L75.874 104.331C75.7839 104.138 75.6777 103.955 75.5568 103.781L67.026 89Z" fill="white"/>
<path fill-rule="evenodd" clip-rule="evenodd" d="M62 66.0497L63.1341 41.4175L87 37L85.8789 64.9372L84.0334 60.6019L85.226 43.7243L64.9734 47.648L63.7935 68L62 66.0497Z" fill="white"/>
<path fill-rule="evenodd" clip-rule="evenodd" d="M80.519 68.9974C77.4814 69.0853 75.0105 66.9191 75 64.1591C74.9896 61.3991 77.4435 59.0904 80.481 59.0026C83.5186 58.9147 85.9895 61.0809 86 63.8409C86.0104 66.6009 83.5565 68.9096 80.519 68.9974Z" fill="white"/>
<path fill-rule="evenodd" clip-rule="evenodd" d="M105 91C112.732 91 119 84.9558 119 77.5C119 70.0442 112.732 64 105 64C97.268 64 91 70.0442 91 77.5C91 84.9558 97.268 91 105 91Z" fill="#121212"/>
<path fill-rule="evenodd" clip-rule="evenodd" d="M111 77L102 84V70L111 77Z" fill="#F8F8F8"/>
<path fill-rule="evenodd" clip-rule="evenodd" d="M30.5 67C32.9853 67 35 64.9853 35 62.5C35 60.0147 32.9853 58 30.5 58C28.0147 58 26 60.0147 26 62.5C26 64.9853 28.0147 67 30.5 67Z" fill="#F037A5"/>
</svg>
